<svg xmlns="http://www.w3.org/2000/svg" width="59.324" height="59.324"><path d="M29.662 0a29.662 29.662 0 1029.662 29.662A29.663 29.663 0 0029.662 0zm-28.3 29.662a28.165 28.165 0 017.223-18.838V42.43h10.2a13.215 13.215 0 007.929-2.313 7.3 7.3 0 001.869-1.958v17.6h10.2a17.068 17.068 0 002.126-.136A28.289 28.289 0 011.364 29.66zm16.836-.98a9.021 9.021 0 014.515 1.035 3.575 3.575 0 011.82 3.369 3.809 3.809 0 01-1.661 3.346 7.451 7.451 0 01-4.314 1.146h-4.717v-8.9zm-4.357-5.031v-8.9h3.909a6 6 0 013.8 1.078 3.867 3.867 0 011.369 3.236 4.793 4.793 0 01-1.145 3.279 4.278 4.278 0 01-3.393 1.3zM38.2 42.014a9.021 9.021 0 014.515 1.035 3.575 3.575 0 011.82 3.369 3.809 3.809 0 01-1.661 3.346 7.452 7.452 0 01-4.314 1.146h-4.72v-8.9zm-4.357-5.031v-8.9h3.909a6 6 0 013.8 1.079 3.866 3.866 0 011.369 3.236 4.792 4.792 0 01-1.145 3.28 4.278 4.278 0 01-3.393 1.3zM49.326 49.99a10.352 10.352 0 00.6-3.618 7.206 7.206 0 00-1.55-4.582 10.232 10.232 0 00-4.29-3.1 8.1 8.1 0 003.123-2.988 8.545 8.545 0 001.1-4.425 7.145 7.145 0 00-2.83-6.132q-2.829-2.09-7.952-2.089h-8.94v5.718c-.073-.1-.128-.213-.208-.315a10.232 10.232 0 00-4.29-3.1 8.1 8.1 0 003.123-2.988 8.546 8.546 0 001.1-4.425 7.145 7.145 0 00-2.83-6.132q-2.83-2.09-7.952-2.089H9.59a28.287 28.287 0 1139.737 40.266z" fill="#fff"/></svg>