<svg xmlns="http://www.w3.org/2000/svg" width="637.782" height="59.583"><path d="M27.312 27.714a9.969 9.969 0 012.138 6.325q0 6.573-4.433 9.764a18.222 18.222 0 01-10.943 3.194H0V1.861h12.342q7.068 0 10.975 2.882t3.905 8.463a11.8 11.8 0 01-1.519 6.108 11.193 11.193 0 01-4.309 4.123 14.143 14.143 0 015.918 4.277zM7.254 21.08h6.262a5.9 5.9 0 004.681-1.8 6.6 6.6 0 001.581-4.526 5.336 5.336 0 00-1.891-4.464 8.272 8.272 0 00-5.239-1.488H7.254zm12.462 17.639A5.253 5.253 0 0022.01 34.1a4.937 4.937 0 00-2.51-4.649 12.473 12.473 0 00-6.232-1.426H7.254v12.276h6.51a10.27 10.27 0 005.952-1.582zm46.655-11.005a9.964 9.964 0 012.139 6.325q0 6.573-4.433 9.764a18.225 18.225 0 01-10.943 3.194H39.06V1.861h12.338q7.068 0 10.974 2.882t3.906 8.463a11.8 11.8 0 01-1.519 6.108 11.193 11.193 0 01-4.309 4.123 14.133 14.133 0 015.921 4.277zM46.314 21.08h6.262a5.9 5.9 0 004.681-1.8 6.6 6.6 0 001.581-4.526 5.336 5.336 0 00-1.891-4.464 8.272 8.272 0 00-5.239-1.488h-5.394zm12.462 17.639A5.253 5.253 0 0061.07 34.1a4.936 4.936 0 00-2.511-4.649 12.469 12.469 0 00-6.231-1.426h-6.014v12.276h6.51a10.274 10.274 0 005.952-1.582zm62.366-2.324h-16.43l-4.34 10.6h-7.13l19.964-47h.435l19.963 47h-8.308zm-2.417-6.2l-5.643-14.26-5.828 14.26zm23.284 16.274a11.425 11.425 0 01-4.433-3.068l2.914-3.906q3.285 3.223 6.7 3.224a5.973 5.973 0 003.069-.713 2.326 2.326 0 001.209-2.139 2.437 2.437 0 00-1.24-2.232 12.378 12.378 0 00-2.759-1.209q-1.521-.465-1.953-.589a10.394 10.394 0 01-5.084-3.069 7.189 7.189 0 01-1.674-4.743 7.889 7.889 0 014.371-7.13 11.238 11.238 0 015.363-1.179 17.551 17.551 0 015.177.683 12.984 12.984 0 014.123 2.17l-2.666 4.153a8.3 8.3 0 00-2.7-1.674 8 8 0 00-2.883-.62 4.514 4.514 0 00-2.667.744 2.482 2.482 0 000 4.062 16.63 16.63 0 003.6 1.519q1.053.31 1.364.434a11.6 11.6 0 014.836 2.759 6.31 6.31 0 011.736 4.619 8.416 8.416 0 01-2.759 6.417q-2.76 2.572-7.9 2.572a15.224 15.224 0 01-5.744-1.085zm26.225 0a11.44 11.44 0 01-4.433-3.068l2.914-3.906q3.287 3.223 6.7 3.224a5.972 5.972 0 003.069-.713 2.325 2.325 0 001.209-2.139 2.437 2.437 0 00-1.24-2.232 12.336 12.336 0 00-2.759-1.209q-1.52-.465-1.953-.589a10.4 10.4 0 01-5.084-3.069 7.189 7.189 0 01-1.674-4.743 7.889 7.889 0 014.371-7.13 11.241 11.241 0 015.363-1.179 17.546 17.546 0 015.177.683 12.973 12.973 0 014.123 2.17l-2.666 4.153a8.289 8.289 0 00-2.7-1.674 8 8 0 00-2.883-.62 4.513 4.513 0 00-2.666.744 2.481 2.481 0 000 4.062 16.592 16.592 0 003.6 1.519q1.053.31 1.365.434a11.6 11.6 0 014.835 2.759 6.31 6.31 0 011.736 4.619 8.416 8.416 0 01-2.758 6.417q-2.76 2.572-7.906 2.572a15.227 15.227 0 01-5.74-1.085zM193.25 8.774a4.13 4.13 0 012.792-1.085 3.942 3.942 0 012.7 1.085 3.41 3.41 0 011.209 2.634 3.318 3.318 0 01-1.209 2.6 4 4 0 01-2.7 1.055 4.192 4.192 0 01-2.791-1.055 3.284 3.284 0 01-1.24-2.6 3.373 3.373 0 011.239-2.634zm6.014 12V47h-6.944V20.771zm11.687 25.695a11.432 11.432 0 01-4.433-3.068l2.914-3.906q3.286 3.223 6.7 3.224a5.973 5.973 0 003.069-.713 2.326 2.326 0 001.209-2.139 2.437 2.437 0 00-1.24-2.232 12.358 12.358 0 00-2.759-1.209q-1.52-.465-1.953-.589a10.4 10.4 0 01-5.084-3.069 7.189 7.189 0 01-1.674-4.743 7.889 7.889 0 014.371-7.13 11.241 11.241 0 015.363-1.179 17.546 17.546 0 015.177.683 12.973 12.973 0 014.123 2.17l-2.666 4.153a8.3 8.3 0 00-2.7-1.674 8 8 0 00-2.883-.62 4.513 4.513 0 00-2.666.744 2.481 2.481 0 000 4.062 16.6 16.6 0 003.6 1.519q1.053.31 1.364.434a11.6 11.6 0 014.836 2.759 6.31 6.31 0 011.736 4.619 8.413 8.413 0 01-2.759 6.417q-2.76 2.572-7.905 2.572a15.228 15.228 0 01-5.74-1.085zM244.523 9.24v11.532h6.82v5.456h-6.82v20.77h-6.944v-20.77h-4.526v-5.456h4.526V9.24zm41.105 11.531v26.226h-6.944v-3.782a14.511 14.511 0 01-3.844 3.069 11.091 11.091 0 01-5.642 1.394 14.17 14.17 0 01-6.758-1.581 11.532 11.532 0 01-4.712-4.68 15.131 15.131 0 01-1.736-7.5 15.329 15.329 0 011.8-7.534 12.923 12.923 0 014.8-5.021 12.787 12.787 0 016.6-1.768q6.386 0 9.548 4.712l.5-3.533zm-9.7 19.747a7.76 7.76 0 002.759-4.123v-5.7a7.252 7.252 0 00-2.883-3.907 8.418 8.418 0 00-4.929-1.488 7.547 7.547 0 00-5.58 2.325 8.084 8.084 0 00-2.294 5.922 8.437 8.437 0 004.092 7.316 7.692 7.692 0 004.03 1.115 7.811 7.811 0 004.802-1.46zm42.529-18.662a7.474 7.474 0 012.511 5.673v19.468h-6.944V30.009a5.063 5.063 0 00-1.209-3.225 4.4 4.4 0 00-3.255-1.24 6.37 6.37 0 00-5.3 2.759 11.381 11.381 0 00-2.077 7.038v11.656h-6.941V20.771h6.262l.5 4.649a10.214 10.214 0 014.123-4.247 12.487 12.487 0 016.231-1.518 8.8 8.8 0 016.099 2.201zM340.001 9.24v11.532h6.82v5.456h-6.82v20.77h-6.944v-20.77h-4.526v-5.456h4.526V9.24zm62.897 36.951a21.834 21.834 0 01-7.657 1.3 23.787 23.787 0 01-12.244-3.069 21.139 21.139 0 01-8.06-8.246 23.386 23.386 0 01-2.821-11.378 25.454 25.454 0 012.821-12.09 20.826 20.826 0 017.874-8.339 22.059 22.059 0 0111.5-3.006 24.6 24.6 0 017.347 1.053 26.141 26.141 0 015.983 2.666l-2.852 6.758a17.623 17.623 0 00-10.23-3.534 13.785 13.785 0 00-7.41 2.14 15.669 15.669 0 00-5.487 5.828 16.41 16.41 0 00-2.045 8.09 18 18 0 001.891 8.34 13.944 13.944 0 005.393 5.765 15.551 15.551 0 008.091 2.078 16.673 16.673 0 005.922-.993 14.548 14.548 0 004.433-2.542l3.038 6.449a23.706 23.706 0 01-5.487 2.73zm13.392-19.717a13.4 13.4 0 015.238-5.053 15.656 15.656 0 017.627-1.829 15.473 15.473 0 017.595 1.829 12.876 12.876 0 015.114 5.023 15.15 15.15 0 010 14.321 13.075 13.075 0 01-5.114 5.054 15.405 15.405 0 01-7.657 1.859 16.432 16.432 0 01-7.565-1.705 12.6 12.6 0 01-5.238-4.9 14.375 14.375 0 01-1.891-7.471 13.828 13.828 0 011.891-7.128zm7.285 13.114a6.991 6.991 0 005.394 2.386 7.077 7.077 0 005.487-2.355 8.517 8.517 0 002.139-5.952 8.636 8.636 0 00-2.139-5.984 7.041 7.041 0 00-5.487-2.387 6.916 6.916 0 00-5.394 2.449 8.621 8.621 0 00-2.17 5.922 8.472 8.472 0 002.17 5.921zm67.549-17.826a7.962 7.962 0 012.387 5.7v19.531h-6.883v-16.86a6.28 6.28 0 00-.93-3.256 3.32 3.32 0 00-2.666-1.27 6.058 6.058 0 00-5.207 2.883 11.913 11.913 0 00-2.047 6.727v11.78h-7.006V30.133a6.151 6.151 0 00-.96-3.225 3.445 3.445 0 00-2.759-1.3 5.593 5.593 0 00-3.72 1.363 9.021 9.021 0 00-2.512 3.6 12.334 12.334 0 00-.9 4.65v11.78h-6.944v-26.23h6.262l.558 4.588a10.6 10.6 0 014.03-4.279 11.315 11.315 0 015.828-1.488 9.5 9.5 0 015.3 1.4 6.573 6.573 0 012.82 4 11.739 11.739 0 014.092-3.968 10.186 10.186 0 015.147-1.427 8.461 8.461 0 016.11 2.165zm35.805-.434a12 12 0 014.65 4.96 16.076 16.076 0 011.674 7.5 14.476 14.476 0 01-1.829 7.378 12.212 12.212 0 01-5.084 4.836 15.832 15.832 0 01-7.347 1.673 12.452 12.452 0 01-5.022-1.053 10.85 10.85 0 01-3.968-2.852v15.81h-6.944V20.275h6.014l.619 3.905a15.72 15.72 0 014.744-3.348 13.861 13.861 0 015.858-1.24 12.941 12.941 0 016.635 1.736zm-5.053 19.748a8.564 8.564 0 003.131-2.945 7.716 7.716 0 001.178-4.216 8.318 8.318 0 00-2.325-6.046 7.7 7.7 0 00-5.736-2.386 8.557 8.557 0 00-5.114 1.487 8.3 8.3 0 00-3.007 4.155v5.27a7.3 7.3 0 002.7 4.154 7.8 7.8 0 004.929 1.612 8.6 8.6 0 004.244-1.085zm46.158-20.305v26.226h-6.943v-3.782a14.524 14.524 0 01-3.844 3.069 11.1 11.1 0 01-5.642 1.394 14.167 14.167 0 01-6.758-1.581 11.527 11.527 0 01-4.713-4.68 15.142 15.142 0 01-1.736-7.5 15.328 15.328 0 011.8-7.534 12.929 12.929 0 014.8-5.021 12.788 12.788 0 016.6-1.768q6.384 0 9.547 4.712l.5-3.533zm-9.7 19.747a7.755 7.755 0 002.76-4.123v-5.7a7.251 7.251 0 00-2.883-3.907 8.421 8.421 0 00-4.93-1.488 7.549 7.549 0 00-5.58 2.325 8.084 8.084 0 00-2.294 5.922 8.44 8.44 0 004.093 7.316 7.686 7.686 0 004.029 1.115 7.811 7.811 0 004.802-1.46zm42.528-18.662a7.471 7.471 0 012.512 5.673v19.468h-6.944V30.009a5.062 5.062 0 00-1.209-3.225 4.4 4.4 0 00-3.255-1.24 6.368 6.368 0 00-5.3 2.759 11.376 11.376 0 00-2.078 7.038v11.656h-6.946V20.771h6.261l.5 4.649a10.233 10.233 0 014.123-4.247 12.491 12.491 0 016.232-1.518 8.8 8.8 0 016.104 2.201zm36.92-1.085l-16.926 38.812h-6.82l6.139-13.7-12.153-25.11h7.813l7.812 17.36 7.812-17.36z" fill="#2e5180"/></svg>