<svg xmlns="http://www.w3.org/2000/svg" width="35.101" height="28.542"><path d="M11.026 28.541c13.245 0 20.493-10.984 20.493-20.493 0-.309 0-.618-.014-.927a14.673 14.673 0 003.6-3.736 14.6 14.6 0 01-4.144 1.138A7.247 7.247 0 0034.135.534a14.327 14.327 0 01-4.579 1.742 7.2 7.2 0 00-12.459 4.93 7.961 7.961 0 00.183 1.643A20.453 20.453 0 012.43 1.32a7.232 7.232 0 002.233 9.621 7.285 7.285 0 01-3.259-.9v.1a7.218 7.218 0 005.773 7.065 7.244 7.244 0 01-3.245.126 7.2 7.2 0 006.728 5 14.446 14.446 0 01-8.947 3.09 13.859 13.859 0 01-1.714-.1 20.488 20.488 0 0011.026 3.217" fill="#fff"/></svg>