<svg xmlns="http://www.w3.org/2000/svg" width="35.101" height="34.951"><path d="M17.55 3.149c4.686 0 5.241.018 7.092.1a9.75 9.75 0 013.259.6 5.8 5.8 0 013.331 3.317 9.636 9.636 0 01.6 3.245c.084 1.843.1 2.4.1 7.062s-.018 5.219-.1 7.062a9.637 9.637 0 01-.6 3.245 5.8 5.8 0 01-3.331 3.317 9.75 9.75 0 01-3.259.6c-1.85.084-2.405.1-7.092.1s-5.241-.018-7.092-.1a9.75 9.75 0 01-3.259-.6 5.441 5.441 0 01-2.018-1.307 5.413 5.413 0 01-1.313-2.009 9.637 9.637 0 01-.6-3.245c-.084-1.843-.1-2.4-.1-7.062s.018-5.219.1-7.062a9.636 9.636 0 01.6-3.245A5.413 5.413 0 015.182 5.16 5.441 5.441 0 017.2 3.853a9.75 9.75 0 013.259-.6c1.851-.084 2.406-.1 7.092-.1m0-3.149c-4.766 0-5.364.02-7.236.105a12.93 12.93 0 00-4.261.812 8.607 8.607 0 00-3.108 2.012A8.562 8.562 0 00.921 6.028a12.779 12.779 0 00-.816 4.242c-.085 1.864-.106 2.459-.106 7.205s.02 5.341.106 7.205a12.779 12.779 0 00.816 4.241 8.563 8.563 0 002.024 3.1 8.607 8.607 0 003.109 2.016 12.931 12.931 0 004.26.812c1.872.085 2.47.105 7.236.105s5.364-.02 7.236-.105a12.931 12.931 0 004.26-.812 8.955 8.955 0 005.133-5.116 12.779 12.779 0 00.816-4.242c.085-1.864.106-2.459.106-7.205s-.02-5.341-.106-7.205a12.779 12.779 0 00-.816-4.242A8.955 8.955 0 0029.047.921a12.93 12.93 0 00-4.26-.812c-1.872-.085-2.47-.105-7.236-.105z" fill="#fff"/><path d="M17.551 8.593a8.883 8.883 0 108.958 8.883 8.92 8.92 0 00-8.958-8.883zm0 14.649a5.766 5.766 0 115.815-5.766 5.79 5.79 0 01-5.815 5.766z" fill="#fff"/><circle cx="2.12" cy="2.12" r="2.12" transform="translate(24.791 6.041)" fill="#fff"/></svg>